<svg version="1.0" xmlns="http://www.w3.org/2000/svg" width="240.000000pt" height="240.000000pt" viewBox="0 0 240.000000 240.000000" preserveAspectRatio="xMidYMid meet"> <g transform="translate(0.000000,240.000000) scale(0.100000,-0.100000)" fill="#dd2f31" stroke="none"> <path d="M2291 1820 c0 -8 4 -49 9 -90 42 -365 -282 -543 -635 -349 -243 133 -321 157 -421 130 -65 -17 -143 -79 -191 -150 -48 -72 -54 -91 -21 -67 126 90 226 79 447 -50 68 -40 163 -87 210 -105 285 -104 566 37 641 321 16 59 17 244 2 295 -13 46 -41 90 -41 65z"/> <path d="M314 1641 c-105 -64 -118 -202 -33 -329 35 -51 165 -183 241 -246 l48 -38 37 28 c83 62 251 239 277 292 55 110 42 209 -37 277 -75 65 -194 45 -253 -43 l-22 -32 -27 36 c-56 74 -160 98 -231 55z"/> <path d="M119 1383 c-127 -390 47 -688 401 -688 161 0 266 43 460 189 154 115 194 131 335 130 75 0 129 -6 170 -18 84 -25 115 -30 115 -18 0 6 -9 14 -20 17 -12 4 -50 29 -86 56 -101 78 -175 109 -259 109 -97 0 -126 -10 -320 -106 -343 -169 -620 -137 -724 85 -24 52 -26 66 -26 193 0 75 -3 139 -7 143 -3 4 -21 -37 -39 -92z"/> <path d="M1902 990 c-29 -27 -29 -83 -2 -110 30 -30 83 -27 109 6 58 74 -39 167 -107 104z"/> <path d="M470 563 c-82 -30 -58 -153 31 -153 34 0 69 41 69 81 0 28 -30 69 -49 69 -5 0 -15 2 -23 4 -7 3 -20 2 -28 -1z"/> </g> </svg>