<?xml version="1.0" standalone="no"?> <!DOCTYPE svg PUBLIC "-//W3C//DTD SVG 20010904//EN" "http://www.w3.org/TR/2001/REC-SVG-20010904/DTD/svg10.dtd"> <svg version="1.0" xmlns="http://www.w3.org/2000/svg" width="192.000000pt" height="192.000000pt" viewBox="0 0 192.000000 192.000000" preserveAspectRatio="xMidYMid meet"> <g transform="translate(0.000000,192.000000) scale(0.100000,-0.100000)" fill="#db2e32" stroke="none"> <path d="M1476 1243 c14 -158 -120 -218 -289 -129 -132 69 -180 68 -240 -4 -31 -36 -30 -48 1 -31 38 20 80 11 177 -40 177 -93 304 -70 360 65 25 58 20 196 -6 196 -5 0 -6 -25 -3 -57z"/> <path d="M595 1205 c-49 -48 -31 -106 64 -199 l60 -59 49 41 c66 55 104 112 105 158 2 71 -80 107 -134 58 -17 -15 -20 -15 -45 5 -35 28 -69 27 -99 -4z"/> <path d="M520 1103 c-40 -139 -10 -237 85 -282 90 -42 177 -23 303 66 70 51 146 63 237 40 l30 -7 -30 26 c-87 76 -148 78 -278 12 -183 -93 -345 -29 -323 128 7 55 -9 67 -24 17z"/> <path d="M1299 924 c-9 -11 -10 -20 -2 -32 15 -24 44 -27 59 -7 28 38 -27 75 -57 39z"/> <path d="M668 739 c-22 -12 -23 -42 -2 -60 31 -26 70 25 44 56 -14 17 -19 18 -42 4z"/> </g> </svg>